<?xml version="1.0" encoding="utf-8"?>
<!-- Generator: Adobe Illustrator 24.1.0, SVG Export Plug-In . SVG Version: 6.00 Build 0)  -->
<svg version="1.1" id="Layer_1" xmlns="http://www.w3.org/2000/svg" xmlns:xlink="http://www.w3.org/1999/xlink" x="0px" y="0px"
	 viewBox="0 0 300 400" style="enable-background:new 0 0 300 400;" xml:space="preserve">
<style type="text/css">
	.st0{fill:#A5C0E3;}
	.st1{stroke:#000000;stroke-width:3;stroke-linecap:round;stroke-linejoin:round;stroke-miterlimit:10;}
	.st2{fill:none;stroke:#000000;stroke-width:6;stroke-linecap:round;stroke-linejoin:round;stroke-miterlimit:10;}
	.st3{fill:#766255;}
	.st4{fill:none;stroke:#766255;stroke-width:5;stroke-linecap:round;stroke-linejoin:round;stroke-miterlimit:10;}
</style>
<path class="st0" d="M218.33,217.88c7.15-7.46,12.8-16.28,16.23-26.07c7.34-20.94,4.49-44.18-1.89-65.43
	c-2.5-8.32-5.57-16.52-9.28-24.4c7.29-4.28,13.31-10.77,16.65-18.55c21.75-50.71-52.24-76.31-70.23-37.29
	c-11.77-4.69-23.55-5.3-34.7-1.6c-21.75-25-75.96-22.1-68.61,33.2c1.5,11.33,8.92,21.39,18.78,27.1
	c-8.39,22.4-12.03,46.59-10.38,70.46c0.65,9.43,2.17,19.02,6.6,27.37c3.5,6.6,8.68,12.15,14.43,16.96
	c-2.62,4.44-4.86,9.12-6.85,13.87c-12.08,28.85-15.46,61.28-9.58,92c1.8,9.42,4.57,18.91,10.35,26.57
	c5.68,7.53,13.88,12.75,22.33,16.95c23.33,11.59,50.71,16.41,75.83,9.52c25.12-6.89,47.26-26.6,53.46-51.9
	c5.75-23.48-2.2-47.92-10.27-70.71C227.5,245.52,223.78,231.12,218.33,217.88z"/>
<path d="M146.21,318.93c-0.22-2.04-0.51-4.12-1.43-5.89c-0.92-1.76-2.6-3.15-4.39-2.97c-3.11,0.31-4.46,4.66-4.66,8.22
	c0.03-3.47-0.54-6.94-1.67-10.15c-0.65-1.85-2.3-3.94-3.82-2.94c-0.58,0.39-0.89,1.13-1.14,1.84c-1.17,3.31-1.69,6.91-1.53,10.47
	c0.26-2.85-0.36-5.8-1.73-8.2c-0.45-0.79-1.06-1.57-1.87-1.69c-1.61-0.23-2.48,2.09-2.7,3.94c-1.13,9.46,0.22,19.11,2.57,28.27
	c1.75,6.82,9.61,31.76,18.35,24.46C150.11,357.67,147.26,328.38,146.21,318.93z"/>
<path d="M193.68,318.89c-0.22-2.03-0.51-4.11-1.42-5.87c-0.91-1.76-2.59-3.14-4.36-2.96c-3.09,0.31-4.43,4.64-4.63,8.19
	c0.03-3.45-0.54-6.91-1.66-10.12c-0.65-1.85-2.29-3.93-3.79-2.93c-0.58,0.38-0.89,1.12-1.14,1.83c-1.16,3.3-1.68,6.89-1.52,10.44
	c0.26-2.84-0.36-5.78-1.72-8.17c-0.45-0.78-1.05-1.56-1.86-1.68c-1.6-0.23-2.46,2.09-2.68,3.92c-1.13,9.42,0.22,19.04,2.55,28.17
	c1.74,6.8,9.56,31.65,18.24,24.38C197.55,357.49,194.71,328.3,193.68,318.89z"/>
<path class="st1" d="M171.88,142.42c-0.41-1.02-1.76-1.27-2.84-1.09c-3.66,0.61-6.27,4.78-5.23,8.33s5.5,5.65,8.9,4.18
	c2.62-1.13,4.31-4.15,3.83-6.97s-3.13-5.12-5.98-5.15"/>
<path class="st1" d="M139.43,143.65c-0.41-1.02-1.76-1.27-2.84-1.09c-3.66,0.61-6.27,4.78-5.23,8.33c1.04,3.56,5.5,5.65,8.9,4.18
	c2.62-1.13,4.31-4.15,3.83-6.97s-3.13-5.12-5.98-5.15"/>
<path class="st2" d="M175.15,172.06c-2.98,1.71-6.38,2.68-9.81,2.8c-2.07,0.07-4.18-0.17-6.05-1.07s-3.45-8.72-3.97-10.72
	c-0.45,3.45-3.32,12.48-6.62,13.6s-6.93,0.78-10.29-0.14c-1.37-0.38-2.93-1.07-3.22-2.46"/>
<path d="M134.53,247.83c-1.3,0.95-2.89,1.46-4.21,2.39c1.7,0.23,3.3,1.11,4.4,2.43c0.55,0.66,0.99,1.45,1.06,2.31
	c0.13,1.49-0.87,2.89-2.14,3.68s-2.77,1.08-4.23,1.37c1.11,1.23,3.19,1.16,4.26,2.41c0.91,1.05,0.74,2.75-0.11,3.86
	c-0.84,1.11-2.19,1.72-3.55,2.05c-6.51,1.61-13.69-2.79-15.9-9.12c-0.59-1.69-0.87-3.54-0.47-5.28c1.14-4.94,7.64-11.22,12.34-13.06
	C130.12,239.25,140.92,243.15,134.53,247.83z"/>
<path d="M184.28,244.65c-3.05-2.23-6.57-3.8-10.27-4.58c-1.6-0.34-3.42-0.48-4.74,0.5c-1.66,1.24-1.74,3.86-0.61,5.6
	c1.13,1.73,3.12,2.71,5.11,3.29c-1.44-0.41-2.92-0.83-4.4-0.64c-1.48,0.19-2.97,1.15-3.31,2.6c-0.34,1.46,0.61,2.99,1.89,3.77
	s2.84,0.95,4.34,1.02c-2.33,0.06-4.9,0.42-6.41,2.19c-1.89,2.22-1.13,5.92,1.12,7.78c2.25,1.86,5.48,2.12,8.31,1.4
	c4.97-1.26,9.08-5.43,10.28-10.42c0.71-2.98,0.44-6.09,0.17-9.14C185.66,246.99,185.15,245.29,184.28,244.65z"/>
<path class="st3" d="M109.42,53.7c3.66-3.18,9.22-5.24,13.92-4.05c-0.72-7.05-0.74-14.32,1.48-21.05s6.95-12.9,13.54-15.49
	c4.09-1.61,8.62-1.78,13-1.41c8.84,0.75,17.93,3.89,23.62,10.7c7.18,8.57,7.53,20.87,6.33,31.98c2.9,0.5,5.79,2.25,8.17,3.99
	c0.59,0.43,1.19,0.94,1.41,1.65c0.52,1.66-1.26,3.09-2.81,3.87c-21.63,10.9-47.99,8.07-70.48-0.93
	C113.19,61.18,110.36,58.37,109.42,53.7z"/>
<path class="st4" d="M148.58,145.93c1.73,5.08,0.51,11.16-3.38,14.85c-4.79,4.54-12.75,4.65-18.35,1.16
	c-3.15-1.96-5.67-4.92-7.1-8.35c-1.43-3.41-1.74-7.44-0.09-10.75c1.97-3.96,6.24-6.15,10.34-7.81
	C137.71,131.92,146.06,138.53,148.58,145.93z"/>
<path class="st4" d="M187.47,144.79c1.73,5.08,0.51,11.16-3.38,14.85c-4.79,4.54-12.75,4.65-18.35,1.16
	c-3.15-1.96-5.67-4.92-7.1-8.35c-1.43-3.41-1.74-7.44-0.09-10.75c1.97-3.96,6.24-6.15,10.34-7.81
	C176.59,130.78,184.94,137.39,187.47,144.79z"/>
<line class="st4" x1="157.38" y1="149.53" x2="149.1" y2="149.53"/>
</svg>
