<?xml version="1.0" encoding="utf-8"?>
<!-- Generator: Adobe Illustrator 24.1.0, SVG Export Plug-In . SVG Version: 6.00 Build 0)  -->
<svg version="1.1" id="Layer_1" xmlns="http://www.w3.org/2000/svg" xmlns:xlink="http://www.w3.org/1999/xlink" x="0px" y="0px"
	 viewBox="0 0 300 400" style="enable-background:new 0 0 300 400;" xml:space="preserve">
<style type="text/css">
	.st0{fill:#EF8C91;}
	.st1{stroke:#000000;stroke-width:3;stroke-linecap:round;stroke-linejoin:round;stroke-miterlimit:10;}
	.st2{fill:none;stroke:#000000;stroke-width:6;stroke-linecap:round;stroke-linejoin:round;stroke-miterlimit:10;}
	.st3{fill:#FF5950;stroke:#FF5950;stroke-miterlimit:10;}
</style>
<path class="st0" d="M219.6,217.7c7.9-8.2,14.1-18,17.9-28.8c8.1-23.1,5-48.8-2.1-72.3c-2.8-9.2-6.1-18.3-10.3-27
	c8.1-4.7,14.7-11.9,18.4-20.5c24-56-57.7-84.3-77.6-41.2c-13-5.2-26-5.9-38.3-1.8c-24-27.6-83.9-24.4-75.8,36.7
	c1.7,12.5,9.9,23.6,20.7,30c-9.3,24.8-13.3,51.5-11.5,77.9c0.7,10.4,2.4,21,7.3,30.2c3.9,7.3,9.6,13.4,15.9,18.7
	c-2.9,4.9-5.4,10.1-7.6,15.3c-13.3,31.9-17.1,67.7-10.6,101.7c2,10.4,5,20.9,11.4,29.4c6.3,8.3,15.3,14.1,24.7,18.7
	c25.8,12.8,56,18.1,83.8,10.5c27.8-7.6,52.2-29.4,59.1-57.4c6.4-26-2.4-53-11.4-78.1C229.8,248.2,225.7,232.3,219.6,217.7z"/>
<path d="M135.9,329.4c-0.2-2.2-0.6-4.6-1.6-6.5s-2.9-3.5-4.9-3.3c-3.4,0.3-4.9,5.1-5.1,9.1c0-3.8-0.6-7.7-1.8-11.2
	c-0.7-2-2.6-4.4-4.2-3.2c-0.6,0.4-1,1.2-1.3,2c-1.3,3.7-1.9,7.6-1.7,11.6c0.3-3.1-0.4-6.4-1.9-9.1c-0.5-0.9-1.2-1.7-2.1-1.9
	c-1.8-0.2-2.7,2.3-3,4.4c-1.2,10.5,0.2,21.1,2.8,31.2c1.9,7.5,10.6,35.1,20.3,27C140.3,372.2,137.1,339.8,135.9,329.4z"/>
<path d="M188.4,329.3c-0.2-2.2-0.6-4.5-1.6-6.5c-1-1.9-2.9-3.5-4.8-3.3c-3.4,0.3-4.9,5.1-5.1,9c0-3.8-0.6-7.6-1.8-11.2
	c-0.7-2-2.5-4.3-4.2-3.2c-0.6,0.4-1,1.2-1.3,2c-1.3,3.6-1.9,7.6-1.7,11.5c0.3-3.1-0.4-6.4-1.9-9c-0.5-0.9-1.2-1.7-2.1-1.9
	c-1.8-0.2-2.7,2.3-3,4.3c-1.2,10.4,0.2,21,2.8,31.1c1.9,7.5,10.6,35,20.1,26.9C192.7,372,189.6,339.7,188.4,329.3z"/>
<path class="st1" d="M164.3,134.3c-0.4-1.1-1.9-1.4-3.1-1.2c-4,0.7-6.9,5.3-5.8,9.2c1.1,3.9,6.1,6.2,9.8,4.6
	c2.9-1.2,4.8-4.6,4.2-7.7s-3.4-5.7-6.6-5.7"/>
<path class="st1" d="M128.4,135.6c-0.4-1.1-1.9-1.4-3.1-1.2c-4,0.7-6.9,5.3-5.8,9.2c1.2,3.9,6.1,6.2,9.8,4.6
	c2.9-1.2,4.8-4.6,4.2-7.7s-3.4-5.7-6.6-5.7"/>
<path class="st2" d="M167.9,167c-3.3,1.9-7.1,3-10.9,3.1c-2.3,0.1-4.6-0.2-6.7-1.2s-3.8-2.8-4.4-5c-0.5,3.8-3.7,6.9-7.3,8.2
	c-3.6,1.2-7.7,0.9-11.4-0.2c-1.5-0.4-3.2-1.2-3.6-2.7"/>
<path d="M123,250.8c-1.4,1.1-3.2,1.6-4.7,2.6c1.9,0.2,3.7,1.2,4.9,2.7c0.6,0.7,1.1,1.6,1.2,2.5c0.1,1.6-1,3.2-2.4,4.1
	s-3.1,1.2-4.7,1.5c1.2,1.4,3.5,1.3,4.7,2.7c1,1.2,0.8,3-0.1,4.3c-0.9,1.2-2.4,1.9-3.9,2.3c-7.2,1.8-15.1-3.1-17.6-10.1
	c-0.7-1.9-1-3.9-0.5-5.8c1.3-5.5,8.4-12.4,13.6-14.4C118.2,241.3,130.1,245.6,123,250.8z"/>
<path d="M178,247.3c-3.4-2.5-7.3-4.2-11.4-5.1c-1.8-0.4-3.8-0.5-5.2,0.6c-1.8,1.4-1.9,4.3-0.7,6.2s3.4,3,5.6,3.6
	c-1.6-0.4-3.2-0.9-4.9-0.7s-3.3,1.3-3.7,2.9c-0.4,1.6,0.7,3.3,2.1,4.2s3.1,1,4.8,1.1c-2.6,0.1-5.4,0.5-7.1,2.4
	c-2.1,2.5-1.2,6.5,1.2,8.6s6.1,2.3,9.2,1.5c5.5-1.4,10-6,11.4-11.5c0.8-3.3,0.5-6.7,0.2-10.1C179.5,249.9,179,248,178,247.3z"/>
<path d="M132.9,18c-2.7-0.7-5.5-1.3-8.3-1.3c-8.1,0-15.6,5.8-18.5,13.3s-1.5,16.4,2.9,23.1c2,3,4.7,5.8,8.2,7
	c5.5,1.8,11.5-0.8,16.2-4.1c4.7-3.3,9.1-7.5,14.5-9.4c1.1,3,3.9,4.9,6.5,6.7c4.6,3.1,9.2,6.2,14.6,7.5s11.5,0.4,15.3-3.6
	c4.1-4.4,4.2-11.2,3.8-17.2c-0.3-5.8-0.9-11.8-3.6-17s-8.3-9.2-14.1-8.5c-2.6,0.3-5.1,1.6-7.4,2.9c-4.4,2.4-10.9,8.8-15.8,7.8
	C142.8,24.1,137.9,19.2,132.9,18z"/>
<path d="M140.1,30.1c-0.2,4.2,0.2,8.5,1.4,12.6c0.8,2.6,2.1,5.5,4.7,6.3c2.3,0.7,4.9-0.6,6.3-2.5c1.4-1.9,2-4.4,2.3-6.8
	c0.4-2.8,0.5-5.6,0.4-8.4c-0.2-4-1.7-11.4-6.8-11.8C142.5,19,140.3,25.5,140.1,30.1z"/>
<path class="st3" d="M118.3,154.5c-1.5-0.8-3.3-1.2-5-1c-1.3,0.2-2.7,0.9-2.9,2.1c-0.2,1,0.6,2,1.4,2.7c1.5,1.2,3.5,1.8,5.4,1.7
	c1.5-0.1,3.1-0.8,3.5-2.2c0.3-1.1-0.3-2.4-1.3-3.1s-2.2-0.9-3.3-1"/>
<path class="st3" d="M174.6,151.4c-1.9,0-3.8,0.6-5.2,1.9c-0.7,0.7-1.3,1.7-1,2.6c0.4,1.1,1.7,1.4,2.8,1.6c1.5,0.2,3.1,0.5,4.6,0.1
	c1.2-0.3,2.3-0.9,3.3-1.6C184.2,152.8,177.5,151.3,174.6,151.4z"/>
</svg>
