<?xml version="1.0" encoding="utf-8"?>
<!-- Generator: Adobe Illustrator 24.1.0, SVG Export Plug-In . SVG Version: 6.00 Build 0)  -->
<svg version="1.1" id="Layer_1" xmlns="http://www.w3.org/2000/svg" xmlns:xlink="http://www.w3.org/1999/xlink" x="0px" y="0px"
	 viewBox="0 0 300 400" style="enable-background:new 0 0 300 400;" xml:space="preserve">
<style type="text/css">
	.st0{fill:#EF8C91;}
	.st1{stroke:#000000;stroke-width:3;stroke-linecap:round;stroke-linejoin:round;stroke-miterlimit:10;}
	.st2{fill:none;stroke:#000000;stroke-width:6;stroke-linecap:round;stroke-linejoin:round;stroke-miterlimit:10;}
	.st3{fill:#FF5950;stroke:#FF5950;stroke-miterlimit:10;}
</style>
<path class="st0" d="M189.64,217.68c7.9-8.24,14.15-17.99,17.94-28.81c8.11-23.14,4.96-48.82-2.1-72.31
	c-2.76-9.2-6.15-18.26-10.26-26.96c8.05-4.73,14.71-11.91,18.4-20.5c24.04-56.04-57.74-84.33-77.62-41.21
	c-13-5.18-26.02-5.85-38.34-1.76C73.62-1.51,13.72,1.7,21.84,62.82c1.66,12.52,9.86,23.63,20.75,29.95
	c-9.27,24.76-13.29,51.49-11.47,77.87c0.72,10.42,2.4,21.02,7.3,30.25c3.87,7.29,9.59,13.43,15.94,18.74
	c-2.89,4.9-5.37,10.08-7.57,15.32c-13.35,31.88-17.08,67.72-10.58,101.67c1.99,10.41,5.05,20.9,11.44,29.36
	c6.28,8.32,15.34,14.09,24.68,18.72c25.78,12.81,56.03,18.13,83.8,10.52c27.76-7.61,52.23-29.4,59.07-57.36
	c6.35-25.95-2.43-52.96-11.35-78.14C199.78,248.23,195.66,232.31,189.64,217.68z"/>
<path d="M109.95,329.36c-0.25-2.25-0.57-4.56-1.58-6.51c-1.01-1.95-2.88-3.48-4.85-3.29c-3.44,0.34-4.93,5.15-5.14,9.08
	c0.03-3.83-0.6-7.66-1.85-11.22c-0.72-2.05-2.55-4.35-4.22-3.24c-0.64,0.43-0.99,1.25-1.26,2.03c-1.29,3.66-1.87,7.64-1.69,11.57
	c0.29-3.15-0.4-6.41-1.91-9.06c-0.49-0.87-1.17-1.73-2.07-1.86c-1.78-0.25-2.74,2.31-2.98,4.35c-1.25,10.45,0.25,21.12,2.84,31.24
	c1.93,7.54,10.63,35.1,20.28,27.03C114.26,372.16,111.11,339.79,109.95,329.36z"/>
<path d="M162.4,329.3c-0.25-2.24-0.56-4.54-1.57-6.48c-1.01-1.94-2.86-3.47-4.82-3.28c-3.41,0.34-4.9,5.13-5.11,9.05
	c0.03-3.82-0.59-7.64-1.84-11.18c-0.72-2.04-2.53-4.34-4.19-3.23c-0.64,0.42-0.98,1.24-1.26,2.02c-1.28,3.64-1.86,7.61-1.68,11.53
	c0.29-3.14-0.39-6.39-1.9-9.03c-0.49-0.87-1.16-1.73-2.05-1.86c-1.77-0.25-2.72,2.31-2.96,4.33c-1.25,10.41,0.24,21.04,2.82,31.13
	c1.92,7.51,10.56,34.98,20.15,26.94C166.68,371.96,163.55,339.71,162.4,329.3z"/>
<path class="st1" d="M138.31,134.29c-0.45-1.13-1.94-1.4-3.14-1.2c-4.04,0.67-6.93,5.28-5.78,9.21c1.15,3.93,6.08,6.24,9.84,4.62
	c2.9-1.25,4.76-4.59,4.23-7.7c-0.53-3.11-3.45-5.66-6.61-5.69"/>
<path class="st1" d="M102.44,135.65c-0.45-1.13-1.94-1.4-3.14-1.2c-4.04,0.67-6.93,5.28-5.78,9.21c1.15,3.93,6.08,6.24,9.84,4.62
	c2.9-1.25,4.76-4.59,4.23-7.7s-3.45-5.66-6.61-5.69"/>
<path class="st2" d="M141.92,167.04c-3.29,1.89-7.05,2.97-10.85,3.1c-2.28,0.08-4.62-0.19-6.68-1.18s-3.81-2.77-4.39-4.98
	c-0.5,3.82-3.67,6.92-7.31,8.16c-3.64,1.24-7.66,0.87-11.37-0.16c-1.52-0.42-3.23-1.18-3.56-2.72"/>
<path d="M97.04,250.78c-1.44,1.05-3.2,1.61-4.65,2.65c1.88,0.25,3.65,1.23,4.86,2.68c0.61,0.73,1.09,1.6,1.17,2.55
	c0.14,1.64-0.96,3.19-2.36,4.06c-1.4,0.87-3.06,1.2-4.68,1.51c1.22,1.36,3.52,1.28,4.71,2.67c1.01,1.17,0.81,3.04-0.12,4.27
	c-0.93,1.23-2.43,1.9-3.92,2.27c-7.19,1.78-15.13-3.09-17.57-10.08c-0.65-1.87-0.97-3.91-0.52-5.84c1.26-5.46,8.44-12.4,13.63-14.43
	C92.16,241.3,104.1,245.61,97.04,250.78z"/>
<path d="M152.01,247.27c-3.37-2.47-7.26-4.2-11.35-5.06c-1.77-0.37-3.78-0.53-5.24,0.55c-1.83,1.36-1.92,4.27-0.67,6.19
	c1.25,1.92,3.45,2.99,5.64,3.63c-1.59-0.45-3.23-0.91-4.87-0.7c-1.64,0.21-3.29,1.27-3.66,2.88c-0.37,1.62,0.67,3.31,2.09,4.17
	c1.42,0.86,3.14,1.05,4.8,1.13c-2.57,0.07-5.41,0.47-7.08,2.43c-2.09,2.45-1.25,6.54,1.23,8.6c2.48,2.06,6.06,2.34,9.18,1.55
	c5.49-1.4,10.04-6,11.36-11.51c0.79-3.29,0.49-6.73,0.19-10.1C153.54,249.85,152.97,247.97,152.01,247.27z"/>
<path d="M106.94,17.95c-2.72-0.68-5.47-1.31-8.27-1.3c-8.07,0.02-15.59,5.76-18.53,13.27S78.6,46.3,83.02,53.06
	c1.99,3.05,4.7,5.81,8.15,6.96c5.5,1.83,11.49-0.8,16.23-4.13c4.74-3.34,9.05-7.52,14.53-9.41c1.12,2.96,3.89,4.9,6.52,6.67
	c4.55,3.06,9.23,6.17,14.56,7.46c5.33,1.29,11.53,0.41,15.27-3.6c4.13-4.43,4.19-11.18,3.84-17.22c-0.34-5.82-0.88-11.82-3.64-16.95
	s-8.29-9.21-14.07-8.52c-2.63,0.32-5.05,1.56-7.36,2.85c-4.35,2.43-10.95,8.83-15.83,7.83C116.81,24.09,111.94,19.2,106.94,17.95z"
	/>
<path d="M114.05,30.12c-0.24,4.22,0.23,8.48,1.38,12.55c0.75,2.63,2.1,5.5,4.72,6.28c2.31,0.69,4.87-0.59,6.31-2.52
	s1.99-4.39,2.31-6.78c0.37-2.77,0.5-5.58,0.38-8.37c-0.17-3.99-1.68-11.43-6.77-11.84C116.51,18.96,114.32,25.49,114.05,30.12z"/>
<path class="st3" d="M92.34,154.51c-1.52-0.84-3.31-1.18-5.03-0.96c-1.29,0.16-2.72,0.85-2.93,2.13c-0.17,1.04,0.56,2.01,1.38,2.67
	c1.51,1.21,3.47,1.82,5.4,1.69c1.47-0.1,3.1-0.82,3.49-2.25c0.31-1.14-0.32-2.38-1.27-3.07s-2.16-0.94-3.33-1.03"/>
<path class="st3" d="M148.61,151.37c-1.91,0.04-3.84,0.65-5.25,1.93c-0.73,0.66-1.33,1.66-1.01,2.59c0.37,1.08,1.7,1.42,2.82,1.59
	c1.51,0.23,3.06,0.47,4.55,0.14c1.21-0.27,2.3-0.9,3.34-1.57C158.17,152.77,151.5,151.32,148.61,151.37z"/>
</svg>
