<?xml version="1.0" encoding="utf-8"?>
<!-- Generator: Adobe Illustrator 24.1.0, SVG Export Plug-In . SVG Version: 6.00 Build 0)  -->
<svg version="1.1" id="Layer_1" xmlns="http://www.w3.org/2000/svg" xmlns:xlink="http://www.w3.org/1999/xlink" x="0px" y="0px"
	 viewBox="0 0 300 400" style="enable-background:new 0 0 300 400;" xml:space="preserve">
<style type="text/css">
	.st0{fill:#B79EDA;}
	.st1{stroke:#000000;stroke-width:3;stroke-linecap:round;stroke-linejoin:round;stroke-miterlimit:10;}
	.st2{fill:none;stroke:#000000;stroke-width:6;stroke-linecap:round;stroke-linejoin:round;stroke-miterlimit:10;}
	.st3{fill:#666666;stroke:#666666;stroke-miterlimit:10;}
	.st4{fill:none;stroke:#666666;stroke-width:11;stroke-miterlimit:10;}
</style>
<path class="st0" d="M223.72,219.05c8.39-8.05,15.01-17.59,19.03-28.16c8.6-22.62,5.26-47.72-2.22-70.67
	c-2.93-8.99-6.53-17.85-10.88-26.35c8.54-4.63,15.6-11.64,19.52-20.04c25.5-54.77-61.25-82.42-82.34-40.28
	c-13.79-5.06-27.61-5.72-40.68-1.72C100.64,4.82,37.09,7.96,45.7,67.69c1.76,12.23,10.46,23.1,22.02,29.27
	c-9.84,24.2-14.1,50.33-12.16,76.11c0.76,10.19,2.55,20.54,7.74,29.56c4.1,7.13,10.18,13.12,16.91,18.31
	c-3.07,4.79-5.7,9.85-8.03,14.98c-14.16,31.16-18.12,66.19-11.22,99.37c2.11,10.17,5.36,20.43,12.13,28.7
	c6.66,8.13,16.28,13.77,26.18,18.3c27.35,12.52,59.44,17.72,88.89,10.28c29.45-7.44,55.4-28.74,62.67-56.07
	c6.74-25.36-2.58-51.76-12.04-76.38C234.47,248.91,230.1,233.35,223.72,219.05z"/>
<path d="M139.18,328.2c-0.26-2.2-0.6-4.45-1.68-6.36c-1.07-1.91-3.05-3.41-5.15-3.21c-3.64,0.34-5.23,5.03-5.46,8.88
	c0.04-3.74-0.64-7.49-1.96-10.96c-0.76-2-2.7-4.26-4.47-3.17c-0.68,0.42-1.05,1.22-1.34,1.99c-1.37,3.57-1.98,7.46-1.79,11.31
	c0.31-3.08-0.42-6.26-2.03-8.86c-0.52-0.85-1.24-1.7-2.19-1.82c-1.89-0.25-2.9,2.26-3.16,4.25c-1.33,10.21,0.26,20.64,3.01,30.53
	c2.05,7.37,11.27,34.31,21.51,26.42C143.75,370.04,140.4,338.41,139.18,328.2z"/>
<path d="M194.82,328.15c-0.26-2.19-0.6-4.44-1.67-6.34s-3.03-3.39-5.12-3.2c-3.62,0.33-5.19,5.01-5.42,8.85
	c0.04-3.73-0.63-7.47-1.95-10.93c-0.76-2-2.69-4.24-4.45-3.16c-0.68,0.41-1.04,1.21-1.33,1.98c-1.36,3.56-1.97,7.44-1.78,11.27
	c0.31-3.07-0.42-6.24-2.01-8.83c-0.52-0.85-1.23-1.69-2.18-1.81c-1.88-0.25-2.89,2.25-3.14,4.24c-1.32,10.18,0.26,20.57,2.99,30.43
	c2.03,7.34,11.2,34.19,21.38,26.33C199.36,369.85,196.03,338.32,194.82,328.15z"/>
<path class="st1" d="M169.26,137.55c-0.48-1.1-2.06-1.37-3.33-1.17c-4.29,0.66-7.35,5.16-6.13,9c1.22,3.84,6.45,6.1,10.44,4.52
	c3.08-1.22,5.05-4.48,4.49-7.52c-0.56-3.04-3.66-5.53-7.01-5.56"/>
<path class="st1" d="M131.21,138.88c-0.48-1.1-2.06-1.37-3.33-1.17c-4.29,0.66-7.35,5.16-6.13,9c1.22,3.84,6.45,6.1,10.44,4.52
	c3.08-1.22,5.05-4.48,4.49-7.52c-0.56-3.04-3.66-5.53-7.01-5.56"/>
<path class="st2" d="M173.1,169.56c-3.49,1.85-7.48,2.9-11.51,3.03c-2.42,0.08-4.91-0.19-7.09-1.15c-2.18-0.97-4.04-2.71-4.66-4.87
	c-0.53,3.73-3.89,6.77-7.76,7.98c-3.87,1.21-8.13,0.85-12.06-0.15c-1.61-0.41-3.43-1.16-3.78-2.66"/>
<path d="M125.48,251.4c-1.53,1.03-3.39,1.58-4.94,2.59c1.99,0.25,3.87,1.2,5.16,2.62c0.65,0.71,1.16,1.57,1.24,2.49
	c0.15,1.61-1.02,3.12-2.5,3.97c-1.48,0.85-3.25,1.17-4.96,1.48c1.3,1.32,3.73,1.25,5,2.6c1.07,1.14,0.86,2.97-0.12,4.17
	c-0.99,1.2-2.57,1.86-4.16,2.22c-7.63,1.74-16.05-3.02-18.64-9.85c-0.69-1.83-1.03-3.82-0.55-5.71c1.34-5.34,8.95-12.12,14.46-14.11
	C120.3,242.14,132.97,246.35,125.48,251.4z"/>
<path d="M183.8,247.97c-3.57-2.41-7.7-4.11-12.04-4.95c-1.88-0.36-4.02-0.52-5.56,0.54c-1.95,1.33-2.04,4.17-0.71,6.05
	c1.32,1.87,3.66,2.93,5.99,3.55c-1.68-0.44-3.43-0.89-5.16-0.69c-1.74,0.2-3.49,1.24-3.88,2.81c-0.4,1.58,0.71,3.23,2.22,4.07
	c1.51,0.84,3.33,1.03,5.09,1.1c-2.73,0.07-5.74,0.46-7.51,2.37c-2.22,2.4-1.32,6.39,1.31,8.4c2.63,2.01,6.43,2.29,9.74,1.51
	c5.82-1.36,10.65-5.87,12.05-11.25c0.84-3.21,0.52-6.58,0.2-9.87C185.42,250.49,184.82,248.66,183.8,247.97z"/>
<path class="st3" d="M177.93,211.97c33.45-15.62,53.25-52.81,46.16-86.74c-2.71-12.98-9.18-25.58-19.96-34.31
	c-7.09-5.74-15.75-9.6-24.68-12.42c-35.06-11.08-77.49-5.06-103.07,19.65c-1.86,1.8-3.78,3.77-6.37,4.46
	c-3.12,0.82-6.47-0.44-9.09-2.21c-9.45-6.36-12.14-18.08-13.91-28.74c-1.24-7.51-2.38-15.15-1.22-22.67
	c2.49-16.24,16.6-30.42,33.95-34.12s36.78,3.33,46.77,16.9c15.24-4.31,21.71-5.06,40.32,2.4c-0.09-8.08,13.68-17.92,21.84-20.87
	c21.54-7.77,50.42,5.92,61.66,24.54c11.25,18.62,5.24,44.52-13.28,57.29c6.28,19.64,9.86,40.01,10.62,60.47
	c0.57,15.15-2.11,36.2-10.47,49.26c-9.35,14.62-27.42,21.27-45.3,25.34s-36.59,4.11-55.01,3.73c-11.19-0.23-20.82-3.79-29.96-9.74
	c-1.7-1.1-3.39-2.62-3.43-4.54c-0.06-3.68,5.34-4.85,9.33-4.79c27.8,0.41,57.13,1.53,81.64-10.57"/>
<path class="st3" d="M58.05,93.47c-16.94,28.93-19.28,65.46-2.06,94.25c3.15,5.26,7.93,16.49,11.33,21.62
	c3.25,4.9,4.9,8.31,13.75,14.91c8.41,6.27,35.34,7.3,46.11,8.2c2.2,0.18-11.77-2.03-10.33-3.57c2.3-2.46-0.03-6.18-2.35-8.62
	c-8.24-8.67-17.09-16.9-24.27-26.33c-20.36-26.73-25.55-62.96-12.44-93.3c0.72-1.67,2.18-3.64,4.05-3.14
	c1.38-3.1-1.14-3.77-1.03-7.11c0.11-3.35-1-6.85-3.66-9.14c-2.65-2.29-7-3.01-10.02-1.17c-1.18,0.72-2.09,1.76-2.95,2.8
	c-2.26,2.73-4.33,5.6-6.17,8.59C57.11,92.88,57.06,92.07,58.05,93.47z"/>
<path class="st4" d="M124.47,246.75c0,0.74,0.07,1.54,0.63,2.07c0.55,0.52,1.4,0.62,2.18,0.66c5.54,0.25,11.53-1.66,14.48-5.98
	c2.7-3.96,2.37-9,1.94-13.66c0.65,2.48,1.3,4.96,1.94,7.45c0.67,2.58,1.37,5.21,2.91,7.45s4.1,4.06,6.98,4.11
	c3.77,0.07,7.03-3.09,7.51-6.54c0.48-3.45-1.36-6.91-4.09-9.32s-6.24-3.89-9.77-5.1c-1.8-0.61-3.51,0.08-5-0.34
	c-1.61-0.46-2.36-2-4.36-2.32c-3.53-0.57-4.88,0.85-6.82,3.01C128.6,233.15,124.48,240.24,124.47,246.75z"/>
<path class="st4" d="M120.1,64.6c-12.43,7.83-25.02,15.79-34.8,26.34c-12.94,13.96-20.34,32.18-20.52,50.54"/>
<path class="st4" d="M133.84,222.18c-4.4-1.1-8.79-2.2-13.19-3.29c-2.81-0.7-5.63-1.41-8.32-2.42c-3.68-1.39-7.08-3.34-10.4-5.38
	c-8.1-4.97-15.89-10.53-22.06-17.47"/>
<path class="st0" d="M82.48,37.2c-3.18,1.74-5.43,4.64-7.09,7.69c-3.16,5.81-4.45,12.47-3.68,18.93c0.12,0.97,0.29,1.97,0.85,2.8
	c0.64,0.95,1.72,1.57,2.83,2.01c4.52,1.8,9.88,0.98,14.24-1.12c4.36-2.11,7.92-5.37,11.34-8.63c4.68-4.46,11.1-12.83,5.74-19.02
	C102.1,34.52,88.33,34,82.48,37.2z"/>
<path class="st0" d="M230.59,61.13c0.17,1.48,0.24,3.02-0.29,4.43c-1.5,3.95-6.92,5.23-11.45,4.96
	c-13.92-0.86-37.31-18.37-20.36-30.53C213.83,28.99,229.15,48.81,230.59,61.13z"/>
</svg>
