<?xml version="1.0" encoding="utf-8"?>
<!-- Generator: Adobe Illustrator 24.1.0, SVG Export Plug-In . SVG Version: 6.00 Build 0)  -->
<svg version="1.1" id="Layer_1" xmlns="http://www.w3.org/2000/svg" xmlns:xlink="http://www.w3.org/1999/xlink" x="0px" y="0px"
	 viewBox="0 0 300 400" style="enable-background:new 0 0 300 400;" xml:space="preserve">
<style type="text/css">
	.st0{fill:#FFD95E;}
	.st1{stroke:#000000;stroke-width:3;stroke-linecap:round;stroke-linejoin:round;stroke-miterlimit:10;}
	.st2{fill:none;stroke:#000000;stroke-width:6;stroke-linecap:round;stroke-linejoin:round;stroke-miterlimit:10;}
	.st3{fill:#006A31;stroke:#006A31;stroke-width:6;stroke-linecap:round;stroke-linejoin:round;stroke-miterlimit:10;}
</style>
<path class="st0" d="M198.29,218.74c7.57-7.89,13.55-17.23,17.18-27.59c7.76-22.16,4.75-46.76-2.01-69.25
	c-2.65-8.81-5.89-17.49-9.82-25.82c7.71-4.53,14.09-11.4,17.62-19.64c23.02-53.67-55.29-80.76-74.33-39.46
	c-12.45-4.96-24.92-5.61-36.72-1.69C87.18,8.84,29.82,11.91,37.59,70.44c1.59,11.99,9.44,22.63,19.88,28.68
	c-8.88,23.71-12.73,49.31-10.98,74.57c0.69,9.98,2.3,20.13,6.99,28.97c3.71,6.98,9.19,12.86,15.27,17.94
	c-2.77,4.7-5.14,9.65-7.25,14.68c-12.78,30.53-16.36,64.85-10.13,97.36c1.91,9.97,4.84,20.02,10.95,28.12
	c6.01,7.96,14.7,13.49,23.63,17.93c24.69,12.26,53.66,17.36,80.25,10.07c26.59-7.29,50.02-28.16,56.57-54.93
	c6.08-24.85-2.33-50.72-10.87-74.84C208.01,248,204.06,232.76,198.29,218.74z"/>
<path d="M121.98,325.7c-0.24-2.15-0.54-4.36-1.51-6.23c-0.97-1.87-2.76-3.34-4.65-3.15c-3.29,0.33-4.72,4.93-4.93,8.7
	c0.03-3.67-0.57-7.34-1.77-10.74c-0.69-1.96-2.44-4.17-4.04-3.11c-0.61,0.41-0.95,1.19-1.21,1.95c-1.23,3.5-1.79,7.31-1.62,11.08
	c0.28-3.02-0.38-6.14-1.83-8.68c-0.47-0.83-1.12-1.66-1.98-1.78c-1.71-0.24-2.62,2.22-2.86,4.17c-1.2,10.01,0.23,20.22,2.72,29.92
	c1.85,7.22,10.18,33.61,19.42,25.88C126.1,366.69,123.08,335.7,121.98,325.7z"/>
<path d="M172.21,325.65c-0.24-2.15-0.54-4.35-1.5-6.21c-0.96-1.86-2.74-3.33-4.62-3.14c-3.27,0.33-4.69,4.91-4.9,8.67
	c0.03-3.65-0.57-7.32-1.76-10.71c-0.69-1.96-2.42-4.16-4.01-3.1c-0.61,0.41-0.94,1.19-1.2,1.94c-1.23,3.49-1.78,7.29-1.61,11.04
	c0.28-3.01-0.38-6.12-1.82-8.65c-0.47-0.83-1.11-1.66-1.97-1.78c-1.7-0.24-2.61,2.21-2.84,4.15c-1.19,9.97,0.23,20.15,2.7,29.82
	c1.84,7.19,10.11,33.5,19.3,25.8C176.31,366.5,173.31,335.61,172.21,325.65z"/>
<path class="st1" d="M149.14,138.89c-0.43-1.08-1.86-1.34-3.01-1.15c-3.87,0.64-6.64,5.06-5.53,8.82c1.11,3.76,5.82,5.98,9.42,4.43
	c2.78-1.2,4.56-4.39,4.05-7.37c-0.51-2.98-3.31-5.42-6.33-5.45"/>
<path class="st1" d="M114.79,140.19c-0.43-1.08-1.86-1.34-3.01-1.15c-3.87,0.64-6.64,5.06-5.53,8.82c1.11,3.76,5.82,5.98,9.42,4.43
	c2.78-1.2,4.56-4.39,4.05-7.37c-0.51-2.98-3.31-5.42-6.33-5.45"/>
<path class="st2" d="M152.6,170.25c-3.15,1.81-6.75,2.84-10.39,2.97c-2.19,0.08-4.43-0.18-6.4-1.13s-3.65-2.66-4.21-4.77
	c-0.48,3.65-3.51,6.63-7,7.82c-3.49,1.19-7.34,0.83-10.89-0.15c-1.45-0.4-3.1-1.13-3.41-2.61"/>
<path d="M162.26,247.09c-3.22-2.36-6.96-4.03-10.87-4.85c-1.7-0.36-3.62-0.51-5.02,0.53c-1.76,1.31-1.84,4.09-0.64,5.93
	c1.19,1.84,3.3,2.87,5.4,3.48c-1.52-0.43-3.09-0.87-4.66-0.67s-3.15,1.21-3.5,2.75c-0.36,1.55,0.64,3.17,2,3.99
	c1.36,0.82,3.01,1.01,4.6,1.08c-2.46,0.07-5.18,0.45-6.78,2.32c-2,2.35-1.2,6.26,1.18,8.23c2.38,1.97,5.8,2.24,8.8,1.48
	c5.26-1.34,9.61-5.75,10.88-11.03c0.75-3.15,0.47-6.44,0.18-9.68C163.72,249.56,163.18,247.76,162.26,247.09z"/>
<path class="st3" d="M102.65,244.1c-9.26-8.16-18.09-17.14-29.08-22.74c-3.4-1.73-8.22-2.82-10.49,0.25
	c-1.7,2.3-0.79,5.55,0.37,8.16c8.43,18.82,26.53,31.28,44.46,41.46c11.93,6.77,24.17,12.99,36.68,18.61
	c6.97,3.14,14.08,6.12,20.39,10.44c8.36,5.73,15,13.57,22.04,20.86s14.88,14.27,24.48,17.54c9.6,3.26,21.34,2,28.23-5.44
	c7.06-7.62,7.29-19.4,4.94-29.52c-4.4-18.87-16.6-35.8-33.11-45.93c9.35,5.74-1.66,27.27-6.73,31.9c-9.21,8.4-19.07,2.92-29.33-1.12
	C148.89,278.09,124.1,263,102.65,244.1z"/>
<path d="M109.61,250.45c-1.38,1.01-3.06,1.54-4.46,2.53c1.8,0.24,3.49,1.18,4.65,2.57c0.58,0.7,1.04,1.54,1.12,2.44
	c0.14,1.57-0.92,3.06-2.26,3.89c-1.34,0.83-2.93,1.15-4.48,1.45c1.17,1.3,3.37,1.23,4.51,2.55c0.96,1.12,0.78,2.91-0.11,4.09
	s-2.32,1.82-3.75,2.17c-6.89,1.71-14.49-2.96-16.82-9.65c-0.63-1.79-0.93-3.74-0.5-5.59c1.21-5.23,8.08-11.88,13.06-13.82
	C104.94,241.37,116.37,245.5,109.61,250.45z"/>
<path class="st3" d="M141.45,27.36c-1.76-2.71-3.63-5.42-6.21-7.37c-2.58-1.95-6.02-3.03-9.1-2.05c-3.06,0.97-5.19,3.69-7.01,6.34
	c-7.66,11.14-13.49,23.53-17.19,36.53c-0.53,1.85-1.01,3.82-0.47,5.66c1.03,3.51,5.14,4.97,8.72,5.72
	c14.92,3.11,30.54,2.84,45.35-0.8c11.05-2.72,3.21-12.55-0.03-19.22C151.35,43.61,146.65,35.32,141.45,27.36z"/>
<path class="st3" d="M137.82,13.58c0.11-3.02-1.14-6.26-3.78-7.73c-1.08-0.6-2.32-0.87-3.55-0.99c-3.05-0.32-6.48,0.33-8.4,2.72
	c-0.76,0.95-1.23,2.09-1.63,3.24c-0.5,1.44-0.9,2.97-0.71,4.49C121.01,25.39,137.43,23.97,137.82,13.58z"/>
</svg>
