<svg id="Capa_1" enable-background="new 0 0 497 497" height="512" viewBox="0 0 497 497" width="512" xmlns="http://www.w3.org/2000/svg"><g><path d="m201.037 496.998h57.672l21.969-61.176-21.969-61.176h-57.672l-21.968 61.176z" fill="#ffb5ec"/><path d="m280.678 447.48v49.52h82.231c0-19.054-2.6-35.467-6.724-49.52l-37.754-36.417z" fill="#c7856a"/><path d="m280.678 374.645v72.835h75.507c-15.713-53.613-53.54-72.835-53.54-72.835z" fill="#ffb5ec"/><path d="m258.709 374.646h43.938v122.351h-43.938z" fill="#b08bd7" transform="matrix(-1 0 0 -1 561.356 871.644)"/><path d="m179.069 447.48v49.52h-82.232c0-19.054 2.6-35.467 6.724-49.52l37.754-36.417z" fill="#c7856a"/><path d="m179.069 374.645v72.835h-75.507c15.713-53.613 53.54-72.835 53.54-72.835z" fill="#ffb5ec"/><path d="m465.59 62.269h-117.475l73.085 56.672h44.39c15.65 0 28.336-12.686 28.336-28.336 0-15.65-12.686-28.336-28.336-28.336z" fill="#ffb5ec"/><path d="m157.1 374.646h43.938v122.351h-43.938z" fill="#b08bd7"/><path d="m443.272 213.409h-426.797c0-33.901 7.945-65.975 22.072-94.468l191.327-54.504 191.326 54.504c14.126 28.493 22.072 60.567 22.072 94.468z" fill="#b08bd7"/><path d="m90.092 195.352c0-34.047 5.905-66.438 16.536-95.806l-68.082 19.395c-14.126 28.493-22.072 60.567-22.072 94.468h74.178c-.367-5.962-.56-11.982-.56-18.057z" fill="#a47cd1"/><path d="m448.08 105.618c-7.654-15.443-16.896-29.959-27.523-43.349h-72.443l73.085 56.672h33.483z" fill="#ffa2e7"/><path d="m421.2 118.941h-382.653c34.903-70.423 107.56-118.941 191.326-118.941s156.423 48.518 191.327 118.941z" fill="#fbe29f"/><path d="m249.829 42.729h-39.912c-11.989 0-21.708 9.719-21.708 21.708 0 11.989 9.719 21.708 21.708 21.708h39.912c11.989 0 21.708-9.719 21.708-21.708 0-11.989-9.719-21.708-21.708-21.708z" fill="#b08bd7"/><g><circle cx="406.733" cy="223.846" fill="#c7856a" r="49.94"/></g><path d="m402.44 174.545c-25.139-.001-46.497-6.971-63.165-15.435-27.072-13.747-58.834-15.215-87.167-4.301-85.435 32.908-194.601 19.297-194.705 19.291-2.924 12.884-4.448 26.3-4.388 40.083.422 97.502 82.247 177.615 179.738 176.059 96.349-1.538 173.981-80.121 173.981-176.837-.001-13.352-1.49-26.355-4.294-38.86z" fill="#da9d81"/><path d="m194.139 424.16h-30.142c-9.324 0-16.882 7.558-16.882 16.882 0 9.324 7.558 16.882 16.882 16.882h30.142c9.324 0 16.882-7.558 16.882-16.882 0-9.323-7.558-16.882-16.882-16.882z" fill="#fbe29f"/><path d="m265.607 424.16h30.142c9.324 0 16.882 7.558 16.882 16.882 0 9.324-7.558 16.882-16.882 16.882h-30.142c-9.324 0-16.882-7.558-16.882-16.882 0-9.323 7.559-16.882 16.882-16.882z" fill="#fbe29f"/><path d="m155.98 373.743c-40.478-44.105-65.888-107.695-65.888-178.391 0-6.35.208-12.642.611-18.868-20.372-.776-33.264-2.382-33.299-2.384-.002.008-.003.015-.005.023-1.389-.137-2.842-.217-4.385-.217-27.581 0-49.94 22.359-49.94 49.939 0 27.581 22.359 49.94 49.94 49.94 3.946 0 7.36-.472 10.34-1.337 16.134 44.67 49.929 81.295 92.626 101.295z" fill="#c7856a"/><path d="m161.414 11.269c-53.743 18.252-97.937 57.371-122.867 107.672h61.875c11.806-42.343 33.157-79.447 60.992-107.672z" fill="#fccb88"/><g><g><g><ellipse cx="120.393" cy="247.324" fill="#fff" rx="40.396" ry="32.169"/></g><g><ellipse cx="339.353" cy="247.324" fill="#fff" rx="40.396" ry="32.169"/></g></g></g><g><g><path d="m143.936 223.857c-4.142 0-7.5-3.357-7.5-7.5v-16.514c0-4.143 3.358-7.5 7.5-7.5s7.5 3.357 7.5 7.5v16.514c0 4.142-3.358 7.5-7.5 7.5z" fill="#423e4f"/></g><g><path d="m315.81 223.857c-4.142 0-7.5-3.357-7.5-7.5v-16.514c0-4.143 3.358-7.5 7.5-7.5s7.5 3.357 7.5 7.5v16.514c0 4.142-3.357 7.5-7.5 7.5z" fill="#423e4f"/></g><g><path d="m229.873 233.687c-10.851 0-21.17-4.699-28.311-12.894-2.722-3.123-2.396-7.86.726-10.582 3.122-2.721 7.86-2.396 10.582.727 4.292 4.925 10.49 7.749 17.003 7.749s12.711-2.824 17.002-7.749c2.722-3.123 7.459-3.448 10.582-.727 3.123 2.722 3.448 7.459.727 10.582-7.141 8.194-17.459 12.894-28.311 12.894z" fill="#423e4f"/></g></g></g></svg>