<svg id="Capa_1" enable-background="new 0 0 497 497" height="512" viewBox="0 0 497 497" width="512" xmlns="http://www.w3.org/2000/svg"><g><path d="m369.538 414.863 21.293 49.277-21.293 32.857h-49.218l-16.654-57.434z" fill="#b08bd7"/><path d="m127.462 414.863-21.293 49.277 21.293 32.857h49.218l16.654-57.434z" fill="#b08bd7"/><path d="m219.76 497h57.48l26.426-57.437-26.426-74.675h-57.48l-26.426 74.675z" fill="#ffb5ec"/><path d="m37.983 225.64c0-116.079 94.438-210.517 210.517-210.517 116.08 0 210.517 94.438 210.517 210.517z" fill="#00d1b3"/><g fill="#ffbe9c"><circle cx="418.691" cy="235.721" r="46.259"/><circle cx="78.309" cy="235.721" r="46.259"/></g><path d="m277.24 364.888v132.112h43.077c-.464-.008 6.916-22.252 7.57-23.977 5.145-13.57 12.489-25.05 21.861-36.234 9.213-10.995 20.423-20.595 27.748-33.064 14.399-24.509 8.513-51.267-11.224-71.004z" fill="#bc9bdd"/><path d="m219.76 364.888v132.112s-43.002 0-43.077 0c.464-.008-6.916-22.252-7.57-23.977-5.145-13.57-12.489-25.05-21.861-36.234-9.213-10.995-20.423-20.595-27.748-33.064-14.399-24.509-8.513-51.267 11.224-71.004z" fill="#bc9bdd"/><circle cx="248.5" cy="225.64" fill="#ffd3bc" r="170.191"/><path d="m362.234 30.814c-33.416-19.583-72.287-30.814-113.734-30.814-72.506 0-137.13 34.375-178.44 87.686-6.531 8.429-4.64 20.606 4.078 26.747 34.492 24.295 84.666 39.684 137.272 39.684 65.612 0 127.435-33.439 159.782-74.693 12.258-15.635 8.182-38.566-8.958-48.61z" fill="#50e1cd"/><path d="m418.696 496.997h-49.157v-82.134c-.001 0 49.157 25.849 49.157 82.134z" fill="#ffb5ec"/><path d="m78.304 496.997h49.157v-82.134c.001 0-49.157 25.849-49.157 82.134z" fill="#ffb5ec"/><path d="m116.016 207.722c0-46.249 14.946-89.308 40.655-125.396-47.134 30.263-78.363 83.142-78.363 143.315 0 83.853 60.643 153.537 140.463 167.599-62.323-41.964-102.755-109.429-102.755-185.518z" fill="#ffbe9c"/><path d="m258.61.231c-3.352-.148-6.722-.231-10.11-.231-72.506 0-137.13 34.375-178.44 87.686-6.531 8.429-4.64 20.606 4.078 26.747 14.997 10.563 32.961 19.44 52.798 26.103 20.609-61.776 68.886-112.551 131.674-140.305z" fill="#00d1b3"/><g><g><g><ellipse cx="142.325" cy="255.623" fill="#ff9db0" rx="39.176" ry="31.198"/></g><g><ellipse cx="354.675" cy="255.623" fill="#ff9db0" rx="39.176" ry="31.198"/></g></g></g><g><g><path d="m165.157 233.09c-4.142 0-7.5-3.357-7.5-7.5v-16.015c0-4.143 3.358-7.5 7.5-7.5s7.5 3.357 7.5 7.5v16.015c0 4.143-3.358 7.5-7.5 7.5z" fill="#423e4f"/></g><g><path d="m331.843 233.09c-4.142 0-7.5-3.357-7.5-7.5v-16.015c0-4.143 3.358-7.5 7.5-7.5s7.5 3.357 7.5 7.5v16.015c0 4.143-3.358 7.5-7.5 7.5z" fill="#423e4f"/></g><g><path d="m248.5 242.623c-10.589 0-20.659-4.586-27.627-12.583-2.721-3.122-2.396-7.86.727-10.581 3.123-2.722 7.86-2.396 10.582.728 4.119 4.726 10.066 7.437 16.318 7.437s12.2-2.711 16.319-7.438c2.722-3.123 7.459-3.448 10.582-.727 3.123 2.722 3.448 7.459.727 10.582-6.969 7.996-17.039 12.582-27.628 12.582z" fill="#423e4f"/></g></g></g></svg>