<svg id="Capa_1" enable-background="new 0 0 497 497" height="512" viewBox="0 0 497 497" width="512" xmlns="http://www.w3.org/2000/svg"><g><circle cx="76.536" cy="221.255" fill="#ffcabd" r="48.557"/><path d="m462.482 196.911c-9.078-110.097-101.583-196.911-213.982-196.911-110.425 0-201.647 83.791-213.426 191.131-1.381 12.582 8.469 23.581 21.126 23.581h87.423z" fill="#5c586f"/><path d="m100.699 199.261c0-85.688 47.938-160.049 118.181-197.216-96.746 13.408-173.099 91.514-183.806 189.086-1.381 12.582 8.469 23.581 21.126 23.581h45.036c-.346-5.106-.537-10.256-.537-15.451z" fill="#4f4c5f"/><path d="m177.743 367.88 23.054 69.537-23.054 59.583h-58.596c0-89.203 58.596-129.12 58.596-129.12z" fill="#ff889e"/><path d="m377.853 497h-58.596l-21.628-64.56 21.628-64.56c.001 0 58.596 39.917 58.596 129.12z" fill="#ff889e"/><path d="m177.743 367.88h141.515v129.12h-141.515z" fill="#50e1cd"/><circle cx="248.5" cy="383.068" fill="#ffcabd" r="40.516"/><g><circle cx="420.464" cy="221.255" fill="#ffcabd" r="48.557"/></g><path d="m355.36 76.368c-10.18 4.264-17.807 8.487-23.464 12.246-10.945 7.272-24.612 8.967-37.182 5.138-95.04-28.952-122.757 63.601-130.19 103.537-1.877 10.087-10.64 17.423-20.9 17.423h-67.051c1.921 93.307 78.16 168.356 171.927 168.356 94.973 0 171.964-76.991 171.964-171.964 0-54.589-25.436-103.237-65.102-134.739z" fill="#ffd8d2"/><circle cx="410.536" cy="268.794" fill="#fbc072" r="22.168"/><g><path d="m248.42 268.132c-11.068 0-21.595-4.794-28.88-13.153-2.722-3.122-2.396-7.86.726-10.582 3.122-2.721 7.86-2.397 10.582.727 4.436 5.09 10.841 8.009 17.573 8.009s13.137-2.919 17.573-8.009c2.722-3.123 7.459-3.447 10.582-.727 3.123 2.722 3.448 7.46.726 10.582-7.287 8.359-17.813 13.153-28.882 13.153z" fill="#423e4f"/></g><path d="m180.289 197.409h-34.659c-14.561 0-25.414 13.427-22.361 27.664l1.919 8.952c3.226 15.046 16.524 25.794 31.912 25.794h11.719c15.388 0 28.685-10.748 31.912-25.794l1.92-8.952c3.052-14.238-7.801-27.664-22.362-27.664z" fill="#6a647f"/><path d="m320.316 197.409h34.659c14.561 0 25.414 13.427 22.361 27.664l-1.919 8.952c-3.226 15.046-16.524 25.794-31.912 25.794h-11.719c-15.388 0-28.685-10.748-31.912-25.794l-1.919-8.952c-3.053-14.238 7.8-27.664 22.361-27.664z" fill="#6a647f"/><path d="m378.594 201.187c-5.793-7.167-14.402-11.278-23.618-11.278h-34.659c-7.332 0-14.274 2.609-19.725 7.282-12.671-1.643-29.372-3.328-50.288-3.328s-37.617 1.685-50.288 3.328c-5.451-4.673-12.393-7.282-19.725-7.282h-34.661c-9.216 0-17.825 4.111-23.619 11.278s-8.008 16.447-6.076 25.458l1.919 8.952c3.942 18.381 20.447 31.722 39.245 31.722h11.719c18.799 0 35.303-13.341 39.244-31.722l1.92-8.952c1.119-5.221.838-10.529-.716-15.467 11.095-1.247 24.748-2.315 41.035-2.315s29.939 1.068 41.035 2.315c-1.554 4.938-1.835 10.246-.716 15.467l1.919 8.952c3.942 18.381 20.447 31.722 39.245 31.722h11.719c18.799 0 35.303-13.341 39.244-31.722l1.92-8.952c1.935-9.011-.28-18.29-6.073-25.458zm-183.277 22.313-1.92 8.952c-2.468 11.512-12.805 19.867-24.578 19.867h-11.719c-11.773 0-22.11-8.355-24.578-19.867l-1.919-8.952c-.978-4.561.143-9.257 3.075-12.884s7.289-5.708 11.953-5.708h34.659c4.127 0 8.008 1.634 10.879 4.521.332.47.714.898 1.14 1.278 2.878 3.616 3.978 8.27 3.008 12.793zm174.686 0-1.92 8.952c-2.468 11.512-12.805 19.867-24.578 19.867h-11.719c-11.773 0-22.11-8.355-24.578-19.867l-1.919-8.952c-.97-4.523.129-9.176 3.007-12.79.426-.379.807-.808 1.139-1.278 2.872-2.889 6.754-4.524 10.882-4.524h34.659c4.664 0 9.021 2.081 11.953 5.708 2.931 3.628 4.052 8.324 3.074 12.884z" fill="#423e4f"/><path d="m101.237 214.712c-13.339 0-24.664 0-24.664 0 1.395 67.772 42.004 125.902 100.053 152.647-42.912-37.634-71.257-91.777-75.389-152.647z" fill="#ffcabd"/></g></svg>