<?xml version="1.0"?>
<svg xmlns="http://www.w3.org/2000/svg" xmlns:xlink="http://www.w3.org/1999/xlink" xmlns:svgjs="http://svgjs.com/svgjs" version="1.1" width="512" height="512" x="0" y="0" viewBox="0 0 511.999 511.999" style="enable-background:new 0 0 512 512" xml:space="preserve" class=""><g>
<g xmlns="http://www.w3.org/2000/svg">
	<g>
		<path d="M458.143,109.921l-17.427-17.427L501.88,31.33l-21.212-21.212l-61.164,61.164l-17.427-17.427    C367.35,19.126,321.175,0,272.061,0s-95.289,19.126-130.017,53.855l-10.607,10.606l18.726,18.726l-84.178,84.178    c-32.128,32.128-53.578,72.709-62.027,117.352s-3.315,90.256,14.85,131.904l23.254,53.314l53.314,23.254    c28.613,12.479,59.094,18.809,89.849,18.809c14.011,0,28.082-1.314,42.055-3.959c44.644-8.45,85.224-29.899,117.352-62.027    l84.178-84.178l18.726,18.726l10.605-10.607c34.729-34.728,53.856-80.903,53.856-130.017S492.873,144.65,458.143,109.921z     M323.421,424.802c-27.849,27.849-63.023,46.44-101.719,53.765c-38.699,7.325-78.233,2.872-114.332-12.872l-42.52-18.545    L46.305,404.63c-15.745-36.1-20.196-75.635-12.872-114.332c7.325-38.696,25.916-73.871,53.765-101.719l84.178-84.178    L407.6,340.624L323.421,424.802z M447.031,337.63L174.369,64.968c27.465-22.648,61.633-34.969,97.692-34.969    c41.101,0,79.742,16.005,108.806,45.069l56.065,56.065c29.063,29.063,45.069,67.705,45.069,108.806    C482,275.997,469.679,310.165,447.031,337.63z" fill="#ffffff" data-original="#000000" style="" class=""/>
	</g>
</g>
<g xmlns="http://www.w3.org/2000/svg">
</g>
<g xmlns="http://www.w3.org/2000/svg">
</g>
<g xmlns="http://www.w3.org/2000/svg">
</g>
<g xmlns="http://www.w3.org/2000/svg">
</g>
<g xmlns="http://www.w3.org/2000/svg">
</g>
<g xmlns="http://www.w3.org/2000/svg">
</g>
<g xmlns="http://www.w3.org/2000/svg">
</g>
<g xmlns="http://www.w3.org/2000/svg">
</g>
<g xmlns="http://www.w3.org/2000/svg">
</g>
<g xmlns="http://www.w3.org/2000/svg">
</g>
<g xmlns="http://www.w3.org/2000/svg">
</g>
<g xmlns="http://www.w3.org/2000/svg">
</g>
<g xmlns="http://www.w3.org/2000/svg">
</g>
<g xmlns="http://www.w3.org/2000/svg">
</g>
<g xmlns="http://www.w3.org/2000/svg">
</g>
</g></svg>
