<?xml version="1.0" encoding="utf-8"?>
<!-- Generator: Adobe Illustrator 24.1.0, SVG Export Plug-In . SVG Version: 6.00 Build 0)  -->
<svg version="1.1" id="Layer_1" xmlns="http://www.w3.org/2000/svg" xmlns:xlink="http://www.w3.org/1999/xlink" x="0px" y="0px"
	 viewBox="0 0 500 500" style="enable-background:new 0 0 500 500;" xml:space="preserve">
<style type="text/css">
	.st0{fill:#926D61;stroke:#000000;stroke-width:8;stroke-miterlimit:10;}
	.st1{stroke:#000000;stroke-width:3;stroke-linecap:round;stroke-linejoin:round;stroke-miterlimit:10;}
	.st2{fill:none;stroke:#000000;stroke-width:6;stroke-linecap:round;stroke-linejoin:round;stroke-miterlimit:10;}
	.st3{fill:#FFF5AB;stroke:#000000;stroke-width:10;stroke-miterlimit:10;}
	.st4{fill:none;stroke:#000000;stroke-width:10;stroke-miterlimit:10;}
	.st5{fill:#79BCFF;stroke:#000000;stroke-width:10;stroke-miterlimit:10;}
	.st6{fill:none;stroke:#000000;stroke-width:5;stroke-linecap:round;stroke-linejoin:round;stroke-miterlimit:10;}
	.st7{fill:none;stroke:#000000;stroke-width:10;stroke-linecap:round;stroke-linejoin:round;stroke-miterlimit:10;}
</style>
<g>
	<path class="st0" d="M241.32,236.71c4.66-4.86,8.34-10.61,10.57-16.98c4.78-13.64,2.92-28.78-1.24-42.62
		c-1.63-5.42-3.63-10.76-6.05-15.89c4.75-2.79,8.67-7.02,10.84-12.09c14.17-33.03-34.03-49.71-45.75-24.29
		c-7.66-3.05-15.34-3.45-22.6-1.04c-14.17-16.29-49.48-14.39-44.69,21.63c0.98,7.38,5.81,13.93,12.23,17.65
		c-5.47,14.59-7.83,30.35-6.76,45.9c0.42,6.14,1.41,12.39,4.3,17.83c2.28,4.3,5.65,7.91,9.4,11.04c-1.7,2.89-3.17,5.94-4.46,9.03
		c-7.87,18.79-10.07,39.92-6.23,59.93c1.17,6.13,2.98,12.32,6.74,17.31c3.7,4.9,9.04,8.3,14.55,11.04
		c15.2,7.55,33.03,10.68,49.39,6.2c16.36-4.49,30.79-17.33,34.82-33.81c3.75-15.3-1.43-31.22-6.69-46.06
		C247.3,254.72,244.87,245.34,241.32,236.71z"/>
	<path d="M194.35,302.54c-0.15-1.33-0.33-2.69-0.93-3.83c-0.6-1.15-1.7-2.05-2.86-1.94c-2.02,0.2-2.9,3.03-3.03,5.35
		c0.02-2.26-0.35-4.52-1.09-6.61c-0.42-1.21-1.5-2.57-2.49-1.91c-0.38,0.25-0.58,0.73-0.75,1.2c-0.76,2.16-1.1,4.5-1,6.82
		c0.17-1.86-0.23-3.78-1.13-5.34c-0.29-0.51-0.69-1.02-1.22-1.1c-1.05-0.15-1.61,1.36-1.76,2.56c-0.74,6.16,0.14,12.45,1.67,18.41
		c1.14,4.44,6.26,20.69,11.95,15.93C196.89,327.77,195.03,308.7,194.35,302.54z"/>
	<path d="M225.26,302.51c-0.15-1.32-0.33-2.68-0.93-3.82s-1.69-2.05-2.84-1.93c-2.01,0.2-2.89,3.02-3.01,5.33
		c0.02-2.25-0.35-4.5-1.08-6.59c-0.42-1.2-1.49-2.56-2.47-1.91c-0.38,0.25-0.58,0.73-0.74,1.19c-0.76,2.15-1.1,4.49-0.99,6.8
		c0.17-1.85-0.23-3.76-1.12-5.32c-0.29-0.51-0.68-1.02-1.21-1.09c-1.04-0.15-1.6,1.36-1.75,2.56c-0.73,6.14,0.14,12.4,1.66,18.35
		c1.13,4.43,6.23,20.62,11.88,15.88C227.79,327.66,225.94,308.64,225.26,302.51z"/>
	<path class="st1" d="M211.06,187.56c-0.27-0.66-1.15-0.82-1.85-0.71c-2.38,0.4-4.08,3.11-3.4,5.43c0.68,2.32,3.58,3.68,5.8,2.73
		c1.71-0.74,2.81-2.7,2.49-4.54s-2.04-3.34-3.9-3.35"/>
	<path class="st1" d="M189.92,188.37c-0.27-0.66-1.15-0.82-1.85-0.71c-2.38,0.4-4.08,3.11-3.4,5.43c0.68,2.32,3.58,3.68,5.8,2.73
		c1.71-0.74,2.81-2.7,2.49-4.54s-2.04-3.34-3.9-3.35"/>
	<path class="st2" d="M213.19,206.87c-1.94,1.12-4.16,1.75-6.39,1.83c-1.35,0.05-2.73-0.11-3.94-0.7c-1.21-0.58-2.24-1.64-2.59-2.94
		c-0.29,2.25-2.16,4.08-4.31,4.81s-4.52,0.51-6.7-0.09c-0.9-0.25-1.91-0.7-2.1-1.61"/>
	<path d="M186.73,256.23c-0.85,0.62-1.88,0.95-2.74,1.56c1.11,0.15,2.15,0.72,2.86,1.58c0.36,0.43,0.64,0.95,0.69,1.5
		c0.08,0.97-0.57,1.88-1.39,2.39c-0.82,0.51-1.8,0.71-2.76,0.89c0.72,0.8,2.07,0.76,2.78,1.57c0.59,0.69,0.48,1.79-0.07,2.52
		c-0.55,0.72-1.43,1.12-2.31,1.34c-4.24,1.05-8.92-1.82-10.36-5.94c-0.38-1.1-0.57-2.3-0.31-3.44c0.74-3.22,4.97-7.31,8.04-8.51
		C183.86,250.64,190.9,253.18,186.73,256.23z"/>
	<path d="M219.14,254.16c-1.98-1.45-4.28-2.48-6.69-2.98c-1.04-0.22-2.23-0.31-3.09,0.32c-1.08,0.8-1.13,2.52-0.4,3.65
		c0.73,1.13,2.03,1.76,3.33,2.14c-0.94-0.27-1.9-0.54-2.87-0.41c-0.97,0.12-1.94,0.75-2.16,1.69c-0.22,0.95,0.39,1.95,1.23,2.46
		c0.84,0.51,1.85,0.62,2.83,0.66c-1.52,0.04-3.19,0.28-4.17,1.43c-1.23,1.45-0.74,3.86,0.73,5.07c1.46,1.21,3.57,1.38,5.41,0.91
		c3.24-0.82,5.92-3.54,6.69-6.79c0.46-1.94,0.29-3.97,0.11-5.95C220.04,255.68,219.7,254.57,219.14,254.16z"/>
	<path class="st3" d="M360.92,387.5H138.07c-11.08,0-20.07-8.99-20.07-20.07V259.57c0-11.08,8.99-20.07,20.07-20.07h222.86
		c11.08,0,20.07,8.99,20.07,20.07v107.86C380.99,378.51,372.01,387.5,360.92,387.5z"/>
	<line class="st4" x1="117.99" y1="282.5" x2="380.99" y2="284.5"/>
	<circle class="st3" cx="284.99" cy="315.5" r="46"/>
	<ellipse class="st5" cx="284.7" cy="315.03" rx="25.7" ry="25.56"/>
	<path class="st4" d="M358.58,269.5h-26.17c-0.78,0-1.41-0.63-1.41-1.41v-10.56c0-0.78,0.63-1.41,1.41-1.41h26.17
		c0.78,0,1.41,0.63,1.41,1.41v10.56C359.99,268.87,359.36,269.5,358.58,269.5z"/>
	<rect x="144.99" y="224.5" class="st3" width="42" height="15"/>
	<path class="st6" d="M296.49,146.05c-4.27-2.1-9.1-4.24-13.62-2.76c-2.09,0.69-3.89,2.11-5.31,3.79c-2.11,2.48-3.51,5.57-3.97,8.8
		c-0.39,2.74-0.1,5.65,1.23,8.08c2.7,4.97,9,6.89,14.65,6.62"/>
	<path class="st6" d="M308.49,148c-4.71,8.85-8.18,18.35-10.28,28.15"/>
	<path class="st6" d="M319.76,152.6c-0.82-0.35-1.88-0.14-2.42,0.57c-0.54,0.71-0.4,1.87,0.34,2.36c0.93,0.61,2.33-0.14,2.54-1.23
		c0.21-1.09-0.58-2.21-1.61-2.6"/>
	<path class="st6" d="M351.99,163.82c-1.19,2.79-2.39,5.57-3.58,8.36c-3.19,7.45-6.41,14.99-7.72,22.99"/>
	<path class="st6" d="M359.25,181.44c-1.93,0.47-3.91,0.78-5.89,0.93c-2.99,0.24-6.06,0.12-8.92,1.02
		c1.73,5.3,4.69,10.19,8.59,14.18"/>
	<path class="st6" d="M382.01,174.71c-2.34,3.15-4.6,6.36-6.77,9.63c-2.28,3.42-4.47,6.92-6.16,10.66"/>
	<path class="st6" d="M363.72,203.67c0.32-0.31,0.11-0.94-0.31-1.09c-0.42-0.16-0.91,0.06-1.2,0.41c-0.44,0.54-0.48,1.37-0.09,1.94
		c0.39,0.58,1.16,0.86,1.83,0.68c0.79-0.21,1.37-1.1,1.16-1.89c-0.21-0.79-1.26-1.26-1.95-0.83"/>
	<path class="st6" d="M336.26,172.57c-2.39-2.85-6.62-3.96-10.15-2.76c-3.53,1.2-6.18,4.56-6.64,8.26
		c-0.16,1.24-0.08,2.53,0.31,3.72c1.21,3.69,5.15,5.81,8.97,6.51"/>
	<path class="st6" d="M315.01,163.11c-2.74,5.14-4.35,10.88-4.67,16.69"/>
</g>
<circle class="st7" cx="250" cy="250" r="206.5"/>
</svg>
