<?xml version="1.0" encoding="utf-8"?>
<!-- Generator: Adobe Illustrator 24.1.0, SVG Export Plug-In . SVG Version: 6.00 Build 0)  -->
<svg version="1.1" id="Layer_1" xmlns="http://www.w3.org/2000/svg" xmlns:xlink="http://www.w3.org/1999/xlink" x="0px" y="0px"
	 viewBox="0 0 500 500" style="enable-background:new 0 0 500 500;" xml:space="preserve">
<style type="text/css">
	.st0{fill:#8D6E63;}
	.st1{fill:none;stroke:#000000;stroke-width:9;stroke-linecap:round;stroke-linejoin:round;stroke-miterlimit:10;}
</style>
<path class="st0" d="M179.06,162.88c-25.95,0.07-53.88,3.32-73.25,20.59c-19.56,17.44-25.9,45.16-28.84,71.2
	c-5.12,45.28-2.71,93.01,18.35,133.41s64.02,71.62,109.47,68.53c41.98-2.85,77.36-33.16,101.87-67.36
	c27.81-38.79,78.99-135.59,46.53-182.9C324.4,164.38,222.56,162.76,179.06,162.88z"/>
<path d="M280.31,259.02c20.83,3.57,42.56,5.56,62.52-2.31s37.81-27.79,39.73-52.52c1.24-16.05-4.3-32.07-12.75-44.72
	c-8.46-12.65-19.65-22.35-31.11-31.11c-9.04-6.91-18.36-13.37-28.22-18.48c-14.35-7.44-29.68-11.96-45.09-15.35
	c-25.37-5.58-51.22-8.22-77.02-7.38c-21.71,0.71-44.22,4.22-62.49,18.09s-31.09,40.42-25.74,65.26c5.93,27.52,30.3,42.9,52.73,53.17
	C192.14,241.66,238.69,251.89,280.31,259.02z"/>
<path d="M271.88,58.37c0.47-5.14,0.34-11.14-3.68-14.38c-0.65-0.53-1.47-0.97-2.3-0.82c-0.83,0.15-1.44,0.84-1.96,1.5
	c-14.25,17.89-18.27,41.67-20.69,64.41c-0.35,3.29-0.62,6.86,1.12,9.68c7.76,12.61,16.45-14.57,17.95-18.56
	C267.34,86.77,270.58,72.66,271.88,58.37z"/>
<path d="M181.49,299.37c6.59,1.22,9.38,9.47,8.42,16.1c-0.61,4.2-2.43,8.54-6.06,10.73c-5,3.01-11.92,0.78-15.59-3.76
	c-3.96-4.91-4.61-12.44-1.01-17.61c3.6-5.18,11.43-7.09,16.71-3.64"/>
<path d="M232.65,310.15c6.59,1.22,9.38,9.47,8.42,16.1c-0.61,4.2-2.43,8.54-6.06,10.73c-5,3.01-11.92,0.78-15.59-3.76
	c-3.96-4.91-4.61-12.44-1.01-17.61c3.6-5.18,11.43-7.09,16.71-3.64"/>
<path class="st1" d="M219.27,361.37c-3.96,5.84-12.22,6.08-17.51,1.83c-5.29-4.26-7.91-11.79-8.56-19.15
	c0.39,7.63-6.1,14.56-12.78,14.11c-6.68-0.45-12.3-7.64-12.43-15.29"/>
</svg>
